<?xml version="1.0" encoding="UTF-8" standalone="no"?>
<!-- Created with Inkscape (http://www.inkscape.org/) -->

<svg
   xmlns:dc="http://purl.org/dc/elements/1.1/"
   xmlns:cc="http://creativecommons.org/ns#"
   xmlns:rdf="http://www.w3.org/1999/02/22-rdf-syntax-ns#"
   xmlns:svg="http://www.w3.org/2000/svg"
   xmlns="http://www.w3.org/2000/svg"
   xmlns:sodipodi="http://sodipodi.sourceforge.net/DTD/sodipodi-0.dtd"
   xmlns:inkscape="http://www.inkscape.org/namespaces/inkscape"
   width="744.09448819"
   height="1052.3622047"
   id="svg2"
   version="1.1"
   inkscape:version="0.48.4 r9939"
   sodipodi:docname="New document 1">
  <defs
     id="defs4" />
  <sodipodi:namedview
     id="base"
     pagecolor="#ffffff"
     bordercolor="#666666"
     borderopacity="1.0"
     inkscape:pageopacity="0.0"
     inkscape:pageshadow="2"
     inkscape:zoom="1.979899"
     inkscape:cx="153.35094"
     inkscape:cy="959.33714"
     inkscape:document-units="px"
     inkscape:current-layer="layer1"
     showgrid="false"
     inkscape:window-width="1280"
     inkscape:window-height="754"
     inkscape:window-x="-6"
     inkscape:window-y="-6"
     inkscape:window-maximized="1" />
  <metadata
     id="metadata7">
    <rdf:RDF>
      <cc:Work
         rdf:about="">
        <dc:format>image/svg+xml</dc:format>
        <dc:type
           rdf:resource="http://purl.org/dc/dcmitype/StillImage" />
        <dc:title></dc:title>
      </cc:Work>
    </rdf:RDF>
  </metadata>
  <g
     inkscape:label="Layer 1"
     inkscape:groupmode="layer"
     id="layer1">
    <path
       style="fill:#000080;stroke:#000000;stroke-width:1px;stroke-linecap:butt;stroke-linejoin:miter;stroke-opacity:1"
       d="m 142.43151,154.33657 -1.51523,-74.498754 0.50508,-0.50507 4.54568,1.01015 0.25254,6.31345 8.83884,0.50508 -1.01016,-5.55584 4.54569,0 0.50508,6.31345 6.31345,1.51523 1.76777,-5.55584 3.28299,2.02031 -3.53553,4.79822 6.31345,3.78807 6.81853,0.25254 -1.01015,3.03046 -4.04061,-0.25254 0.75762,10.606604 6.06091,0.75762 -0.75761,3.78807 -5.05077,-2.77792 -4.54568,8.33376 3.53553,3.53553 -2.0203,2.02031 -5.05077,-3.53554 -2.0203,2.27285 12.12183,20.20305 6.81853,7.07107 5.3033,0.50507 4.54569,-3.53553 -3.53554,6.31345 -7.82868,2.27285 -6.31345,-4.54569 -18.43529,-24.24366 -5.80838,0 -2.77792,27.52665 z"
       id="path2998"
       inkscape:connector-curvature="0" />
    <path
       style="fill:#ffffff;stroke:#000000;stroke-width:1px;stroke-linecap:butt;stroke-linejoin:miter;stroke-opacity:1"
       d="m 153.03811,122.51677 1.76777,-31.567274 6.69226,1.6415 2.27284,7.19733 3.03046,16.541254 -1.26269,0.88389 -11.86929,6.06091 z"
       id="path3000"
       inkscape:connector-curvature="0" />
    <path
       style="fill:#ff00ff;stroke:#000000;stroke-width:1px;stroke-linecap:butt;stroke-linejoin:miter;stroke-opacity:1"
       d="m 183.84777,88.171576 15.78363,-4.04061 3.78807,51.517784 1.76777,-0.37881 14.64721,-20.83439 7.32361,-11.74303 2.0203,-3.282994 -1.76777,-7.57615 -4.16688,-1.26269 -4.67195,1.76777 -2.90419,2.77792 0.25254,4.67195 1.89404,1.767774 3.40926,-0.25254 0.75761,-2.272844 -1.89403,-2.14657 2.39911,-0.75762 2.77792,2.52538 -0.75761,4.293154 -2.52539,1.76777 -4.92449,0.25254 -3.283,-1.26269 -2.65165,-5.303314 0.12627,-5.17703 5.17704,-5.42957 5.05076,-0.88388 5.55584,0.63135 4.16688,4.04061 1.64149,6.69226 -1.51522,7.828684 -31.81981,47.60344 -11.74302,-48.23479 z"
       id="path3002"
       inkscape:connector-curvature="0" />
    <path
       style="fill:#ffffff;stroke:#000000;stroke-width:1px;stroke-linecap:butt;stroke-linejoin:miter;stroke-opacity:1"
       d="m 192.43406,94.737566 4.54569,0.63135 -0.50508,20.960664 -3.28299,-0.3788 z"
       id="path3004"
       inkscape:connector-curvature="0" />
    <text
       xml:space="preserve"
       style="font-size:144px;font-style:normal;font-weight:normal;line-height:125%;letter-spacing:0px;word-spacing:0px;fill:#000000;fill-opacity:1;stroke:none;font-family:Sans"
       x="137.38074"
       y="174.03455"
       id="text3006"
       sodipodi:linespacing="125%"><tspan
         sodipodi:role="line"
         id="tspan3008"
         x="137.38074"
         y="174.03455"
         style="font-size:13px">Baby n' Kids SPA         </tspan></text>
  </g>
</svg>
